<svg xmlns="http://www.w3.org/2000/svg" viewBox="0 0 1200 420" preserveAspectRatio="none" aria-hidden="true">
  <path d="M-20 300 C 140 240, 260 360, 420 280 S 700 120, 900 200 S 1140 340, 1240 220" fill="none" stroke="#4a7dff" stroke-width="2.2" opacity="0.55"/>
  <path d="M-40 250 C 160 180, 300 320, 480 230 S 760 80, 980 170 S 1180 300, 1260 180" fill="none" stroke="#e6299b" stroke-width="2.4" opacity="0.7"/>
  <path d="M-10 340 C 200 280, 340 400, 520 310 S 800 160, 1040 250 S 1200 360, 1280 280" fill="none" stroke="#7aa2ff" stroke-width="1.4" opacity="0.35"/>
  <g fill="#e6299b" opacity="0.55">
    <circle cx="180" cy="232" r="2.2"/>
    <circle cx="410" cy="268" r="1.8"/>
    <circle cx="640" cy="148" r="2.4"/>
    <circle cx="870" cy="196" r="1.7"/>
    <circle cx="1080" cy="228" r="2.1"/>
  </g>
  <g fill="#4a7dff" opacity="0.5">
    <circle cx="260" cy="310" r="1.6"/>
    <circle cx="530" cy="248" r="2"/>
    <circle cx="790" cy="176" r="1.5"/>
    <circle cx="990" cy="214" r="2.2"/>
  </g>
</svg>
